<svg width="17" height="17" viewBox="0 0 17 17" fill="none" xmlns="http://www.w3.org/2000/svg">
<path d="M8.5 0.970947C6.97338 0.970947 5.48104 1.42364 4.2117 2.27179C2.94235 3.11994 1.95302 4.32544 1.36881 5.73586C0.784594 7.14628 0.631737 8.69826 0.929567 10.1956C1.2274 11.6928 1.96254 13.0682 3.04202 14.1477C4.12151 15.2272 5.49686 15.9623 6.99415 16.2601C8.49144 16.558 10.0434 16.4051 11.4538 15.8209C12.8643 15.2367 14.0698 14.2473 14.9179 12.978C15.7661 11.7087 16.2188 10.2163 16.2188 8.6897C16.2166 6.64322 15.4027 4.68118 13.9556 3.2341C12.5085 1.78703 10.5465 0.973108 8.5 0.970947ZM11.8888 7.32853L7.73258 11.4848C7.67744 11.54 7.61195 11.5838 7.53987 11.6137C7.46779 11.6435 7.39053 11.6589 7.3125 11.6589C7.23448 11.6589 7.15721 11.6435 7.08513 11.6137C7.01305 11.5838 6.94757 11.54 6.89243 11.4848L5.11118 9.70353C4.99976 9.59211 4.93717 9.44101 4.93717 9.28345C4.93717 9.12589 4.99976 8.97478 5.11118 8.86337C5.22259 8.75196 5.37369 8.68937 5.53125 8.68937C5.68881 8.68937 5.83992 8.75196 5.95133 8.86337L7.3125 10.2253L11.0487 6.48837C11.1038 6.4332 11.1693 6.38944 11.2414 6.35959C11.3135 6.32973 11.3907 6.31437 11.4688 6.31437C11.5468 6.31437 11.624 6.32973 11.6961 6.35959C11.7682 6.38944 11.8337 6.4332 11.8888 6.48837C11.944 6.54353 11.9878 6.60903 12.0176 6.6811C12.0475 6.75318 12.0628 6.83043 12.0628 6.90845C12.0628 6.98646 12.0475 7.06371 12.0176 7.13579C11.9878 7.20787 11.944 7.27336 11.8888 7.32853Z" fill="#01AB31"/>
</svg>
