<svg width="7" height="11" viewBox="0 0 7 11" fill="none" xmlns="http://www.w3.org/2000/svg">
<path d="M1.71433 0.660696L6.08933 5.0357C6.15051 5.09666 6.19905 5.16911 6.23218 5.24888C6.2653 5.32865 6.28235 5.41417 6.28235 5.50054C6.28235 5.58691 6.2653 5.67243 6.23218 5.7522C6.19905 5.83197 6.15051 5.90442 6.08933 5.96538L1.71433 10.3404C1.59105 10.4637 1.42384 10.5329 1.24949 10.5329C1.07514 10.5329 0.907928 10.4637 0.784644 10.3404C0.66136 10.2171 0.5921 10.0499 0.5921 9.87554C0.5921 9.70119 0.66136 9.53398 0.784644 9.4107L4.69535 5.49999L0.784098 1.58929C0.660813 1.46601 0.591553 1.2988 0.591553 1.12445C0.591553 0.950097 0.660813 0.782887 0.784098 0.659603C0.907382 0.536319 1.07459 0.467057 1.24894 0.467057C1.42329 0.467057 1.5905 0.536319 1.71379 0.659603L1.71433 0.660696Z" fill="black" fill-opacity="0.6"/>
</svg>
