<svg width="20" height="14" viewBox="0 0 18 14" xmlns="http://www.w3.org/2000/svg">
<path d="M16.5 0.4375H1.5C1.25136 0.4375 1.0129 0.536272 0.837087 0.712087C0.661272 0.887903 0.5625 1.12636 0.5625 1.375V12C0.5625 12.4144 0.72712 12.8118 1.02015 13.1049C1.31317 13.3979 1.7106 13.5625 2.125 13.5625H15.875C16.2894 13.5625 16.6868 13.3979 16.9799 13.1049C17.2729 12.8118 17.4375 12.4144 17.4375 12V1.375C17.4375 1.12636 17.3387 0.887903 17.1629 0.712087C16.9871 0.536272 16.7486 0.4375 16.5 0.4375ZM9 6.97813L3.91016 2.3125H14.0898L9 6.97813ZM6.24922 7L2.4375 10.4937V3.50625L6.24922 7ZM7.63672 8.27187L8.36641 8.94141C8.53932 9.09996 8.7654 9.18792 9 9.18792C9.2346 9.18792 9.46068 9.09996 9.63359 8.94141L10.3633 8.27187L14.0898 11.6875H3.91016L7.63672 8.27187ZM11.7508 7L15.5625 3.50625V10.4937L11.7508 7Z"/>
</svg>
