<svg width="110" height="23" viewBox="0 0 110 23" fill="none" xmlns="http://www.w3.org/2000/svg">
<path d="M99.6327 6.62006L99.4283 6.6847C98.6334 5.04145 97.4978 3.73335 96.0216 2.76038C94.5681 1.7874 92.7398 1.30091 90.5368 1.30091C89.3104 1.30091 88.1408 1.54955 87.0279 2.04682C85.9151 2.52253 84.9385 3.20361 84.0982 4.09007C83.2806 4.95493 82.6219 6.00358 82.1223 7.23602C81.6227 8.46846 81.3728 9.83062 81.3728 11.3225C81.3728 12.8144 81.6227 14.1765 82.1223 15.409C82.6219 16.6414 83.2806 17.7008 84.0982 18.5873C84.9385 19.4522 85.9151 20.1225 87.0279 20.5982C88.1408 21.0738 89.3104 21.3116 90.5368 21.3116C92.7171 21.3116 94.4886 20.9873 95.8513 20.3387C97.2367 19.6684 98.4063 18.6522 99.3602 17.2901L99.5646 17.3547L99.4967 19.4304C98.9743 19.9493 98.3725 20.4142 97.6912 20.8249C97.0098 21.2141 96.2717 21.5493 95.4769 21.8304C94.7046 22.0898 93.8984 22.2844 93.0581 22.4141C92.2178 22.5656 91.3774 22.6414 90.5371 22.6414C88.7884 22.6414 87.1191 22.3711 85.5293 21.8305C83.9395 21.29 82.5428 20.5332 81.339 19.5603C80.1354 18.5657 79.1815 17.3765 78.4774 15.9927C77.7734 14.5873 77.4213 13.0306 77.4213 11.3225C77.4213 9.61436 77.7734 8.06843 78.4774 6.68467C79.1815 5.27924 80.1354 4.07924 81.339 3.08468C82.5427 2.09007 83.9395 1.33331 85.5293 0.814399C87.1191 0.273845 88.7884 0.00356801 90.5371 0.00356801C91.3774 0.00356801 92.2178 0.0684323 93.0581 0.198161C93.8984 0.327889 94.7046 0.533302 95.4768 0.814399C96.2717 1.07386 97.0098 1.409 97.6912 1.81982C98.3725 2.20901 98.9743 2.66306 99.4967 3.18197L99.6327 6.62006ZM24.5625 12.8147C24.3128 12.9227 24.0744 13.0633 23.8471 13.2365C23.6199 13.4093 23.5063 13.6472 23.5063 13.95V17.9392C22.4161 19.4311 21.0194 20.5878 19.316 21.4095C17.6127 22.2311 15.7276 22.6419 13.6609 22.6419C11.9121 22.6419 10.2429 22.3716 8.65307 21.8311C7.06329 21.2905 5.66655 20.5338 4.46284 19.5608C3.25915 18.5662 2.30527 17.3771 1.6012 15.9933C0.897178 14.5879 0.545166 13.0311 0.545166 11.323C0.545166 9.61489 0.897178 8.06896 1.6012 6.6852C2.30527 5.27977 3.25915 4.07978 4.46284 3.08521C5.66655 2.0906 7.06329 1.33385 8.65307 0.814959C10.2429 0.274386 11.9121 0.00409971 13.6609 0.00409971C14.5012 0.00409971 15.3415 0.0689639 16.1819 0.198693C17.0222 0.328421 17.8284 0.533834 18.6006 0.814931C19.3955 1.07439 20.1336 1.40953 20.815 1.82036C21.4963 2.20954 22.0982 2.66359 22.6205 3.18251L22.757 6.62031L22.5526 6.68495C21.7577 5.04169 20.6222 3.73357 19.1459 2.76061C17.6924 1.78762 15.8641 1.30113 13.6611 1.30113C12.4347 1.30113 11.2651 1.54978 10.1523 2.04707C9.03944 2.52276 8.06284 3.20384 7.22251 4.0903C6.40489 4.95517 5.74627 6.00383 5.24667 7.23627C4.74698 8.46869 4.49714 9.83085 4.49714 11.3227C4.49714 12.793 4.73562 14.1443 5.21257 15.3768C5.71224 16.6092 6.37087 17.6687 7.18847 18.5552C8.02876 19.42 9.00534 20.1011 10.1182 20.5984C11.2311 21.074 12.4121 21.3119 13.6611 21.3119C16.0231 21.3119 18.0445 20.8795 19.7251 20.0146V13.9498C19.7251 13.6472 19.6002 13.4093 19.3506 13.2362C19.1233 13.0634 18.8962 12.9228 18.6692 12.8144L18.7003 12.6524C18.8137 12.6722 19.0181 12.6938 19.3135 12.7171C19.6089 12.7369 19.9155 12.7584 20.2333 12.7817H23.1633C23.4358 12.7619 23.697 12.7404 23.9468 12.7171C24.1965 12.6973 24.3895 12.6758 24.5258 12.6524L24.5625 12.8147ZM49.2376 0.684951C49.0103 0.792927 48.7832 0.933532 48.5562 1.10676C48.329 1.27961 48.2042 1.60393 48.1818 2.07973C48.161 2.59864 48.1383 3.25811 48.1138 4.05812C48.1138 4.83651 48.1034 5.72298 48.0827 6.71752C48.0827 7.71215 48.0723 8.79324 48.0515 9.96079V13.5932C48.0307 14.9986 47.849 16.1986 47.5062 17.1932C47.1656 18.1878 46.7113 19.0202 46.1436 19.6905C45.5985 20.3608 44.9853 20.8905 44.304 21.2797C43.6453 21.6689 42.9867 21.9608 42.3281 22.1554C41.6921 22.3717 41.0903 22.5014 40.5226 22.5445C39.9548 22.6094 39.5119 22.6418 39.1939 22.6418C37.8994 22.6418 36.6503 22.4797 35.4465 22.1554C34.2428 21.8528 33.1868 21.3555 32.2783 20.6635C31.3699 19.9716 30.6431 19.0743 30.0981 17.9716C29.553 16.8689 29.2805 15.5284 29.2805 13.95V10.2851V6.91212C29.2805 5.87427 29.2701 4.94455 29.2493 4.12295C29.2493 3.2797 29.2389 2.59861 29.2181 2.0797C29.1974 1.60401 29.0725 1.27969 28.8436 1.10674C28.6164 0.933895 28.3893 0.793291 28.1623 0.684923L28.1934 0.522958C28.3069 0.542732 28.4886 0.564279 28.7387 0.587598C29.0113 0.607373 29.2838 0.62892 29.5563 0.652239C29.8517 0.652239 30.1356 0.662126 30.408 0.681901H31.6344C31.907 0.662126 32.1909 0.652239 32.4861 0.652239C32.7815 0.632464 33.054 0.610917 33.3037 0.587598C33.5762 0.567824 33.7692 0.546277 33.8826 0.522958L33.9138 0.684923C33.6641 0.792899 33.4256 0.933504 33.1984 1.10674C32.994 1.27958 32.8804 1.6039 32.8575 2.0797C32.8367 2.59861 32.8141 3.2797 32.7896 4.12295V13.9499C32.7896 16.3067 33.3687 18.0472 34.527 19.1715C35.6853 20.2959 37.4 20.858 39.6711 20.858C40.3297 20.858 41.0792 20.7823 41.9195 20.6308C42.7599 20.458 43.5434 20.112 44.2701 19.593C45.0196 19.0741 45.6442 18.3389 46.1438 17.3876C46.6662 16.4362 46.9274 15.1714 46.9274 13.593C46.9274 11.8849 46.917 10.4255 46.8962 9.21466C46.8962 7.98224 46.8858 6.93359 46.8651 6.06871C46.8651 5.18224 46.8547 4.42548 46.8339 3.79844C46.8131 3.17143 46.7905 2.59847 46.7659 2.07953C46.7452 1.60384 46.6203 1.27952 46.3914 1.10657C46.1642 0.933728 45.9371 0.793114 45.7101 0.684727L45.7413 0.52279C45.991 0.565884 46.2748 0.609192 46.5929 0.652714C46.9107 0.672489 47.206 0.682376 47.4787 0.682376C47.7284 0.682376 48.0122 0.672489 48.3303 0.652714C48.671 0.609621 48.9662 0.566313 49.2161 0.52279L49.2376 0.684951ZM73.9576 6.62006L73.7532 6.6847C72.9583 5.04145 71.8228 3.73335 70.3466 2.76038C68.893 1.7874 67.0648 1.30091 64.8618 1.30091C63.6354 1.30091 62.4657 1.54955 61.3529 2.04682C60.24 2.52253 59.2634 3.20361 58.4231 4.09007C57.6055 4.95493 56.9469 6.00358 56.4472 7.23602C55.9476 8.46848 55.6978 9.83064 55.6978 11.3225C55.6978 12.8144 55.9476 14.1765 56.4473 15.409C56.947 16.6414 57.6056 17.7008 58.4232 18.5873C59.2635 19.4522 60.24 20.1225 61.3529 20.5982C62.4658 21.0738 63.6354 21.3116 64.8618 21.3116C67.0421 21.3116 68.8136 20.9873 70.1763 20.3387C71.5616 19.6684 72.7312 18.6522 73.6851 17.2901L73.8895 17.3547L73.8216 19.4304C73.2992 19.9493 72.6973 20.4141 72.016 20.8249C71.3347 21.2141 70.5966 21.5492 69.8017 21.8303C69.0295 22.0898 68.2232 22.2844 67.3829 22.4141C66.5426 22.5656 65.7023 22.6413 64.862 22.6413C63.1132 22.6413 61.4439 22.3711 59.8541 21.8305C58.2643 21.29 56.8676 20.5332 55.6639 19.5602C54.4602 18.5657 53.5063 17.3765 52.8023 15.9927C52.0982 14.5873 51.7462 13.0306 51.7462 11.3224C51.7462 9.61433 52.0982 8.0684 52.8023 6.68464C53.5063 5.27921 54.4602 4.07922 55.6639 3.08465C56.8676 2.09004 58.2643 1.33329 59.8541 0.814371C61.4439 0.273817 63.1132 0.00354004 64.862 0.00354004C65.7023 0.00354004 66.5426 0.0684044 67.3829 0.198133C68.2233 0.327861 69.0295 0.533274 69.8017 0.814371C70.5966 1.07383 71.3347 1.40897 72.016 1.8198C72.6973 2.20898 73.2992 2.66303 73.8216 3.18195L73.9576 6.62006ZM109.901 22.0903C109.787 22.0705 109.594 22.049 109.322 22.0257C109.072 22.0257 108.799 22.0158 108.504 21.996C108.209 21.996 107.925 21.9861 107.652 21.9663H105.609C105.336 21.9861 105.063 22.0076 104.791 22.031C104.541 22.0507 104.348 22.0723 104.212 22.0956L104.181 21.9656C104.408 21.8577 104.635 21.7171 104.862 21.5438C105.089 21.371 105.214 21.0467 105.237 20.5709C105.257 20.0519 105.268 19.5114 105.268 18.9493C105.289 18.3871 105.299 17.7492 105.299 17.0357V14.6033V11.3276V8.052V5.58713C105.299 4.87362 105.289 4.24659 105.268 3.70604C105.268 3.14388 105.257 2.60334 105.237 2.08443C105.216 1.60874 105.091 1.28442 104.862 1.11147C104.635 0.916873 104.408 0.765579 104.181 0.657584L104.212 0.527687C104.348 0.570781 104.541 0.603213 104.791 0.624983C105.063 0.624983 105.336 0.634871 105.609 0.654645C105.904 0.67442 106.188 0.684307 106.46 0.684307H107.652C107.925 0.664533 108.209 0.654645 108.504 0.654645C108.799 0.634871 109.072 0.613324 109.322 0.590005C109.594 0.57023 109.787 0.548684 109.901 0.525365L109.932 0.655317C109.682 0.763293 109.444 0.914578 109.216 1.10917C109.012 1.28201 108.898 1.60633 108.875 2.08213C108.855 2.60105 108.832 3.14158 108.808 3.70374V18.947C108.828 19.5091 108.851 20.0497 108.875 20.5686C108.896 21.0443 109.01 21.3686 109.216 21.5415C109.444 21.7144 109.682 21.855 109.932 21.9633L109.901 22.0903Z" fill="white"/>
</svg>
